<svg xmlns="http://www.w3.org/2000/svg" viewBox="0 0 72 72"><defs><style>.cls-1{fill:none;stroke:#000;stroke-linecap:round;stroke-linejoin:round;stroke-width:2px;}</style></defs><title>lgoo</title><g id="Logo"><line class="cls-1" x1="25" y1="27" x2="47" y2="27"/><line class="cls-1" x1="25" y1="36" x2="47" y2="36"/><line class="cls-1" x1="25" y1="45" x2="47" y2="45"/><path d="M55,26.75a15,15,0,0,0,1.8-1.29,2.65,2.65,0,0,0,1.09-1.84.6.6,0,0,0-.13-.4.52.52,0,0,0-.4-.15l-.57.06a2,2,0,0,1-1.42-.51,1.77,1.77,0,0,1-.55-1.37,2,2,0,0,1,.56-1.39A2.21,2.21,0,0,1,57,19.27a2.73,2.73,0,0,1,1.86.7A2.57,2.57,0,0,1,59.68,22a4.59,4.59,0,0,1-1.62,3.39,11.63,11.63,0,0,1-2.78,1.84Zm7.11,0a14.27,14.27,0,0,0,1.85-1.35,2.62,2.62,0,0,0,1-1.79.49.49,0,0,0-.17-.41.61.61,0,0,0-.36-.13l-.58.06a2,2,0,0,1-1.41-.51,1.74,1.74,0,0,1-.55-1.34,1.85,1.85,0,0,1,.61-1.47,2.29,2.29,0,0,1,1.59-.54A2.66,2.66,0,0,1,66,20a2.76,2.76,0,0,1,.77,2.06,4.63,4.63,0,0,1-1.7,3.43,12.25,12.25,0,0,1-2.7,1.77Z"/><path d="M5.59,40.19c.26-.23.54-.46.84-.68A14.79,14.79,0,0,1,6,36C6,24.42,19.46,15,36,15a39.09,39.09,0,0,1,17.52,4,4.45,4.45,0,0,1,.38-.48,3.64,3.64,0,0,1,1.3-.88A40.62,40.62,0,0,0,36,13C18.35,13,4,23.32,4,36a17,17,0,0,0,.78,5.06A8.19,8.19,0,0,1,5.59,40.19Z"/><path d="M65.75,27.55a14.91,14.91,0,0,1-1.66,1.08A15.5,15.5,0,0,1,66,36c0,11.58-13.46,21-30,21a40.43,40.43,0,0,1-14.5-2.62l-.4-.19L15,56.54V51l-.42-.3q-.87-.63-1.65-1.29a5.35,5.35,0,0,1-1.08-.69,4,4,0,0,1-.45-.46,3.86,3.86,0,0,1-.54.6,4.57,4.57,0,0,1-.88.57A27.51,27.51,0,0,0,13,52v7.45l8.05-3.11A42.7,42.7,0,0,0,36,59c17.65,0,32-10.32,32-23A17.34,17.34,0,0,0,65.75,27.55Z"/><path d="M17.07,40.42a12.61,12.61,0,0,0-1.81,1.29,2.67,2.67,0,0,0-1.09,1.83.66.66,0,0,0,.13.4.54.54,0,0,0,.4.15l.57-.06a2,2,0,0,1,1.42.52,1.76,1.76,0,0,1,.56,1.37,1.93,1.93,0,0,1-.57,1.38,2.13,2.13,0,0,1-1.65.59,2.79,2.79,0,0,1-1.87-.69,2.59,2.59,0,0,1-.8-2.07A4.61,4.61,0,0,1,14,41.73a11.86,11.86,0,0,1,2.77-1.84Zm-7.11,0A13.38,13.38,0,0,0,8.1,41.77a2.6,2.6,0,0,0-1,1.79.47.47,0,0,0,.17.4.55.55,0,0,0,.36.13A5.6,5.6,0,0,1,8.18,44a2,2,0,0,1,1.4.52,1.72,1.72,0,0,1,.56,1.33,1.89,1.89,0,0,1-.61,1.47,2.33,2.33,0,0,1-1.6.54A2.62,2.62,0,0,1,6,47.15a2.74,2.74,0,0,1-.76-2.06A4.61,4.61,0,0,1,7,41.66a12.28,12.28,0,0,1,2.69-1.77Z"/></g></svg>